<mxfile host="Electron" agent="Mozilla/5.0 (Windows NT 10.0; Win64; x64) AppleWebKit/537.36 (KHTML, like Gecko) draw.io/25.0.1 Chrome/128.0.6613.186 Electron/32.2.6 Safari/537.36" version="25.0.1">
  <diagram name="Page-1" id="X04Mw3Gw8nxOII69zzvJ">
    <mxGraphModel dx="1034" dy="477" grid="1" gridSize="10" guides="1" tooltips="1" connect="1" arrows="1" fold="1" page="1" pageScale="1" pageWidth="850" pageHeight="1100" math="0" shadow="0">
      <root>
        <mxCell id="0" />
        <mxCell id="1" parent="0" />
        <mxCell id="LGlkHWS4qKsqTmbDjTO9-1" value="" style="ellipse;whiteSpace=wrap;html=1;aspect=fixed;" vertex="1" parent="1">
          <mxGeometry x="161" y="398" width="30" height="30" as="geometry" />
        </mxCell>
        <mxCell id="LGlkHWS4qKsqTmbDjTO9-2" value="" style="ellipse;whiteSpace=wrap;html=1;aspect=fixed;" vertex="1" parent="1">
          <mxGeometry x="161" y="248" width="30" height="30" as="geometry" />
        </mxCell>
        <mxCell id="LGlkHWS4qKsqTmbDjTO9-3" value="" style="ellipse;whiteSpace=wrap;html=1;aspect=fixed;" vertex="1" parent="1">
          <mxGeometry x="161" y="318" width="30" height="30" as="geometry" />
        </mxCell>
        <mxCell id="LGlkHWS4qKsqTmbDjTO9-4" value="" style="ellipse;whiteSpace=wrap;html=1;aspect=fixed;" vertex="1" parent="1">
          <mxGeometry x="371" y="508" width="30" height="30" as="geometry" />
        </mxCell>
        <mxCell id="LGlkHWS4qKsqTmbDjTO9-6" value="" style="ellipse;whiteSpace=wrap;html=1;aspect=fixed;" vertex="1" parent="1">
          <mxGeometry x="371" y="138" width="30" height="30" as="geometry" />
        </mxCell>
        <mxCell id="LGlkHWS4qKsqTmbDjTO9-7" value="" style="ellipse;whiteSpace=wrap;html=1;aspect=fixed;" vertex="1" parent="1">
          <mxGeometry x="371" y="218" width="30" height="30" as="geometry" />
        </mxCell>
        <mxCell id="LGlkHWS4qKsqTmbDjTO9-8" value="" style="ellipse;whiteSpace=wrap;html=1;aspect=fixed;" vertex="1" parent="1">
          <mxGeometry x="371" y="288" width="30" height="30" as="geometry" />
        </mxCell>
        <mxCell id="LGlkHWS4qKsqTmbDjTO9-9" value="" style="ellipse;whiteSpace=wrap;html=1;aspect=fixed;" vertex="1" parent="1">
          <mxGeometry x="371" y="358" width="30" height="30" as="geometry" />
        </mxCell>
        <mxCell id="LGlkHWS4qKsqTmbDjTO9-10" value="" style="ellipse;whiteSpace=wrap;html=1;aspect=fixed;" vertex="1" parent="1">
          <mxGeometry x="371" y="428" width="30" height="30" as="geometry" />
        </mxCell>
        <mxCell id="LGlkHWS4qKsqTmbDjTO9-13" value="" style="ellipse;whiteSpace=wrap;html=1;aspect=fixed;" vertex="1" parent="1">
          <mxGeometry x="581" y="368" width="30" height="30" as="geometry" />
        </mxCell>
        <mxCell id="LGlkHWS4qKsqTmbDjTO9-14" value="" style="ellipse;whiteSpace=wrap;html=1;aspect=fixed;" vertex="1" parent="1">
          <mxGeometry x="581" y="278" width="30" height="30" as="geometry" />
        </mxCell>
        <mxCell id="LGlkHWS4qKsqTmbDjTO9-15" value="" style="endArrow=classic;html=1;rounded=0;exitX=1;exitY=0.5;exitDx=0;exitDy=0;entryX=0;entryY=1;entryDx=0;entryDy=0;" edge="1" parent="1" source="LGlkHWS4qKsqTmbDjTO9-2" target="LGlkHWS4qKsqTmbDjTO9-6">
          <mxGeometry width="50" height="50" relative="1" as="geometry">
            <mxPoint x="431" y="438" as="sourcePoint" />
            <mxPoint x="481" y="388" as="targetPoint" />
          </mxGeometry>
        </mxCell>
        <mxCell id="LGlkHWS4qKsqTmbDjTO9-16" value="" style="endArrow=classic;html=1;rounded=0;exitX=1;exitY=0.5;exitDx=0;exitDy=0;entryX=0;entryY=1;entryDx=0;entryDy=0;" edge="1" parent="1" source="LGlkHWS4qKsqTmbDjTO9-1" target="LGlkHWS4qKsqTmbDjTO9-6">
          <mxGeometry width="50" height="50" relative="1" as="geometry">
            <mxPoint x="241" y="283" as="sourcePoint" />
            <mxPoint x="385" y="174" as="targetPoint" />
          </mxGeometry>
        </mxCell>
        <mxCell id="LGlkHWS4qKsqTmbDjTO9-17" value="" style="endArrow=classic;html=1;rounded=0;exitX=1;exitY=0.5;exitDx=0;exitDy=0;entryX=0;entryY=1;entryDx=0;entryDy=0;" edge="1" parent="1" source="LGlkHWS4qKsqTmbDjTO9-3" target="LGlkHWS4qKsqTmbDjTO9-6">
          <mxGeometry width="50" height="50" relative="1" as="geometry">
            <mxPoint x="251" y="293" as="sourcePoint" />
            <mxPoint x="371" y="168" as="targetPoint" />
          </mxGeometry>
        </mxCell>
        <mxCell id="LGlkHWS4qKsqTmbDjTO9-18" value="" style="endArrow=classic;html=1;rounded=0;exitX=1;exitY=0.5;exitDx=0;exitDy=0;entryX=0;entryY=0.5;entryDx=0;entryDy=0;" edge="1" parent="1" source="LGlkHWS4qKsqTmbDjTO9-2" target="LGlkHWS4qKsqTmbDjTO9-7">
          <mxGeometry width="50" height="50" relative="1" as="geometry">
            <mxPoint x="241" y="413" as="sourcePoint" />
            <mxPoint x="385" y="174" as="targetPoint" />
          </mxGeometry>
        </mxCell>
        <mxCell id="LGlkHWS4qKsqTmbDjTO9-19" value="" style="endArrow=classic;html=1;rounded=0;exitX=1;exitY=0.5;exitDx=0;exitDy=0;entryX=0;entryY=0.5;entryDx=0;entryDy=0;" edge="1" parent="1" source="LGlkHWS4qKsqTmbDjTO9-3" target="LGlkHWS4qKsqTmbDjTO9-7">
          <mxGeometry width="50" height="50" relative="1" as="geometry">
            <mxPoint x="241" y="283" as="sourcePoint" />
            <mxPoint x="381" y="243" as="targetPoint" />
          </mxGeometry>
        </mxCell>
        <mxCell id="LGlkHWS4qKsqTmbDjTO9-20" value="" style="endArrow=classic;html=1;rounded=0;exitX=1;exitY=0.5;exitDx=0;exitDy=0;entryX=0;entryY=0.5;entryDx=0;entryDy=0;" edge="1" parent="1" source="LGlkHWS4qKsqTmbDjTO9-1" target="LGlkHWS4qKsqTmbDjTO9-7">
          <mxGeometry width="50" height="50" relative="1" as="geometry">
            <mxPoint x="241" y="343" as="sourcePoint" />
            <mxPoint x="378" y="248" as="targetPoint" />
          </mxGeometry>
        </mxCell>
        <mxCell id="LGlkHWS4qKsqTmbDjTO9-21" value="" style="endArrow=classic;html=1;rounded=0;exitX=1;exitY=0.5;exitDx=0;exitDy=0;entryX=0;entryY=0.5;entryDx=0;entryDy=0;" edge="1" parent="1" source="LGlkHWS4qKsqTmbDjTO9-1" target="LGlkHWS4qKsqTmbDjTO9-8">
          <mxGeometry width="50" height="50" relative="1" as="geometry">
            <mxPoint x="241" y="413" as="sourcePoint" />
            <mxPoint x="381" y="243" as="targetPoint" />
          </mxGeometry>
        </mxCell>
        <mxCell id="LGlkHWS4qKsqTmbDjTO9-22" value="" style="endArrow=classic;html=1;rounded=0;exitX=1;exitY=0.5;exitDx=0;exitDy=0;entryX=0;entryY=0.5;entryDx=0;entryDy=0;" edge="1" parent="1" source="LGlkHWS4qKsqTmbDjTO9-2" target="LGlkHWS4qKsqTmbDjTO9-8">
          <mxGeometry width="50" height="50" relative="1" as="geometry">
            <mxPoint x="241" y="413" as="sourcePoint" />
            <mxPoint x="381" y="313" as="targetPoint" />
          </mxGeometry>
        </mxCell>
        <mxCell id="LGlkHWS4qKsqTmbDjTO9-23" value="" style="endArrow=classic;html=1;rounded=0;exitX=1;exitY=0.5;exitDx=0;exitDy=0;entryX=0;entryY=0.5;entryDx=0;entryDy=0;" edge="1" parent="1" source="LGlkHWS4qKsqTmbDjTO9-3" target="LGlkHWS4qKsqTmbDjTO9-8">
          <mxGeometry width="50" height="50" relative="1" as="geometry">
            <mxPoint x="241" y="283" as="sourcePoint" />
            <mxPoint x="381" y="313" as="targetPoint" />
          </mxGeometry>
        </mxCell>
        <mxCell id="LGlkHWS4qKsqTmbDjTO9-24" value="" style="endArrow=classic;html=1;rounded=0;entryX=0;entryY=0.5;entryDx=0;entryDy=0;exitX=1;exitY=0.5;exitDx=0;exitDy=0;" edge="1" parent="1" source="LGlkHWS4qKsqTmbDjTO9-1" target="LGlkHWS4qKsqTmbDjTO9-9">
          <mxGeometry width="50" height="50" relative="1" as="geometry">
            <mxPoint x="231" y="398" as="sourcePoint" />
            <mxPoint x="381" y="313" as="targetPoint" />
          </mxGeometry>
        </mxCell>
        <mxCell id="LGlkHWS4qKsqTmbDjTO9-25" value="" style="endArrow=classic;html=1;rounded=0;entryX=0;entryY=0.5;entryDx=0;entryDy=0;exitX=1;exitY=0.5;exitDx=0;exitDy=0;" edge="1" parent="1" source="LGlkHWS4qKsqTmbDjTO9-3" target="LGlkHWS4qKsqTmbDjTO9-9">
          <mxGeometry width="50" height="50" relative="1" as="geometry">
            <mxPoint x="241" y="413" as="sourcePoint" />
            <mxPoint x="381" y="383" as="targetPoint" />
          </mxGeometry>
        </mxCell>
        <mxCell id="LGlkHWS4qKsqTmbDjTO9-26" value="" style="endArrow=classic;html=1;rounded=0;entryX=0;entryY=0.5;entryDx=0;entryDy=0;exitX=1;exitY=0.5;exitDx=0;exitDy=0;" edge="1" parent="1" source="LGlkHWS4qKsqTmbDjTO9-2" target="LGlkHWS4qKsqTmbDjTO9-9">
          <mxGeometry width="50" height="50" relative="1" as="geometry">
            <mxPoint x="241" y="343" as="sourcePoint" />
            <mxPoint x="381" y="383" as="targetPoint" />
          </mxGeometry>
        </mxCell>
        <mxCell id="LGlkHWS4qKsqTmbDjTO9-27" value="" style="endArrow=classic;html=1;rounded=0;entryX=0;entryY=0.5;entryDx=0;entryDy=0;exitX=1;exitY=0.5;exitDx=0;exitDy=0;" edge="1" parent="1" source="LGlkHWS4qKsqTmbDjTO9-3" target="LGlkHWS4qKsqTmbDjTO9-10">
          <mxGeometry width="50" height="50" relative="1" as="geometry">
            <mxPoint x="191" y="338" as="sourcePoint" />
            <mxPoint x="381" y="383" as="targetPoint" />
          </mxGeometry>
        </mxCell>
        <mxCell id="LGlkHWS4qKsqTmbDjTO9-30" value="" style="endArrow=classic;html=1;rounded=0;entryX=-0.11;entryY=0.441;entryDx=0;entryDy=0;exitX=1;exitY=0.5;exitDx=0;exitDy=0;entryPerimeter=0;" edge="1" parent="1" source="LGlkHWS4qKsqTmbDjTO9-2" target="LGlkHWS4qKsqTmbDjTO9-10">
          <mxGeometry width="50" height="50" relative="1" as="geometry">
            <mxPoint x="211" y="433" as="sourcePoint" />
            <mxPoint x="391" y="463" as="targetPoint" />
          </mxGeometry>
        </mxCell>
        <mxCell id="LGlkHWS4qKsqTmbDjTO9-31" value="" style="endArrow=classic;html=1;rounded=0;entryX=0;entryY=0.5;entryDx=0;entryDy=0;exitX=1;exitY=0.5;exitDx=0;exitDy=0;" edge="1" parent="1" source="LGlkHWS4qKsqTmbDjTO9-1" target="LGlkHWS4qKsqTmbDjTO9-10">
          <mxGeometry width="50" height="50" relative="1" as="geometry">
            <mxPoint x="201" y="423" as="sourcePoint" />
            <mxPoint x="381" y="533" as="targetPoint" />
          </mxGeometry>
        </mxCell>
        <mxCell id="LGlkHWS4qKsqTmbDjTO9-34" value="" style="endArrow=classic;html=1;rounded=0;exitX=1;exitY=0.5;exitDx=0;exitDy=0;entryX=0;entryY=0.5;entryDx=0;entryDy=0;" edge="1" parent="1" source="LGlkHWS4qKsqTmbDjTO9-6" target="LGlkHWS4qKsqTmbDjTO9-14">
          <mxGeometry width="50" height="50" relative="1" as="geometry">
            <mxPoint x="201" y="273" as="sourcePoint" />
            <mxPoint x="385" y="174" as="targetPoint" />
          </mxGeometry>
        </mxCell>
        <mxCell id="LGlkHWS4qKsqTmbDjTO9-35" value="" style="endArrow=classic;html=1;rounded=0;exitX=1;exitY=0.5;exitDx=0;exitDy=0;entryX=0;entryY=0.5;entryDx=0;entryDy=0;" edge="1" parent="1" source="LGlkHWS4qKsqTmbDjTO9-7" target="LGlkHWS4qKsqTmbDjTO9-14">
          <mxGeometry width="50" height="50" relative="1" as="geometry">
            <mxPoint x="411" y="163" as="sourcePoint" />
            <mxPoint x="556" y="303" as="targetPoint" />
          </mxGeometry>
        </mxCell>
        <mxCell id="LGlkHWS4qKsqTmbDjTO9-36" value="" style="endArrow=classic;html=1;rounded=0;exitX=1;exitY=0.5;exitDx=0;exitDy=0;entryX=0;entryY=0.5;entryDx=0;entryDy=0;" edge="1" parent="1" source="LGlkHWS4qKsqTmbDjTO9-8" target="LGlkHWS4qKsqTmbDjTO9-14">
          <mxGeometry width="50" height="50" relative="1" as="geometry">
            <mxPoint x="411" y="243" as="sourcePoint" />
            <mxPoint x="556" y="303" as="targetPoint" />
          </mxGeometry>
        </mxCell>
        <mxCell id="LGlkHWS4qKsqTmbDjTO9-37" value="" style="endArrow=classic;html=1;rounded=0;exitX=1;exitY=0.5;exitDx=0;exitDy=0;entryX=0;entryY=0.5;entryDx=0;entryDy=0;" edge="1" parent="1" source="LGlkHWS4qKsqTmbDjTO9-9" target="LGlkHWS4qKsqTmbDjTO9-13">
          <mxGeometry width="50" height="50" relative="1" as="geometry">
            <mxPoint x="411" y="313" as="sourcePoint" />
            <mxPoint x="556" y="303" as="targetPoint" />
          </mxGeometry>
        </mxCell>
        <mxCell id="LGlkHWS4qKsqTmbDjTO9-38" value="" style="endArrow=classic;html=1;rounded=0;exitX=1;exitY=0.5;exitDx=0;exitDy=0;entryX=0;entryY=0.5;entryDx=0;entryDy=0;" edge="1" parent="1" source="LGlkHWS4qKsqTmbDjTO9-10" target="LGlkHWS4qKsqTmbDjTO9-13">
          <mxGeometry width="50" height="50" relative="1" as="geometry">
            <mxPoint x="411" y="383" as="sourcePoint" />
            <mxPoint x="556" y="393" as="targetPoint" />
          </mxGeometry>
        </mxCell>
        <mxCell id="LGlkHWS4qKsqTmbDjTO9-39" value="" style="endArrow=classic;html=1;rounded=0;exitX=1;exitY=0.5;exitDx=0;exitDy=0;entryX=0;entryY=0.5;entryDx=0;entryDy=0;" edge="1" parent="1" source="LGlkHWS4qKsqTmbDjTO9-4" target="LGlkHWS4qKsqTmbDjTO9-13">
          <mxGeometry width="50" height="50" relative="1" as="geometry">
            <mxPoint x="411" y="453" as="sourcePoint" />
            <mxPoint x="556" y="393" as="targetPoint" />
          </mxGeometry>
        </mxCell>
        <mxCell id="LGlkHWS4qKsqTmbDjTO9-40" value="" style="endArrow=classic;html=1;rounded=0;exitX=1;exitY=0.5;exitDx=0;exitDy=0;entryX=0;entryY=0.5;entryDx=0;entryDy=0;" edge="1" parent="1" source="LGlkHWS4qKsqTmbDjTO9-9" target="LGlkHWS4qKsqTmbDjTO9-14">
          <mxGeometry width="50" height="50" relative="1" as="geometry">
            <mxPoint x="411" y="313" as="sourcePoint" />
            <mxPoint x="556" y="303" as="targetPoint" />
          </mxGeometry>
        </mxCell>
        <mxCell id="LGlkHWS4qKsqTmbDjTO9-41" value="" style="endArrow=classic;html=1;rounded=0;exitX=1;exitY=0.5;exitDx=0;exitDy=0;entryX=0;entryY=0.5;entryDx=0;entryDy=0;" edge="1" parent="1" source="LGlkHWS4qKsqTmbDjTO9-10" target="LGlkHWS4qKsqTmbDjTO9-14">
          <mxGeometry width="50" height="50" relative="1" as="geometry">
            <mxPoint x="411" y="383" as="sourcePoint" />
            <mxPoint x="556" y="303" as="targetPoint" />
          </mxGeometry>
        </mxCell>
        <mxCell id="LGlkHWS4qKsqTmbDjTO9-42" value="" style="endArrow=classic;html=1;rounded=0;entryX=0;entryY=0.5;entryDx=0;entryDy=0;exitX=1;exitY=0.5;exitDx=0;exitDy=0;" edge="1" parent="1" source="LGlkHWS4qKsqTmbDjTO9-4" target="LGlkHWS4qKsqTmbDjTO9-14">
          <mxGeometry width="50" height="50" relative="1" as="geometry">
            <mxPoint x="411" y="518" as="sourcePoint" />
            <mxPoint x="556" y="303" as="targetPoint" />
          </mxGeometry>
        </mxCell>
        <mxCell id="LGlkHWS4qKsqTmbDjTO9-43" value="" style="endArrow=classic;html=1;rounded=0;exitX=1;exitY=0.5;exitDx=0;exitDy=0;entryX=0;entryY=0.5;entryDx=0;entryDy=0;" edge="1" parent="1" source="LGlkHWS4qKsqTmbDjTO9-8" target="LGlkHWS4qKsqTmbDjTO9-13">
          <mxGeometry width="50" height="50" relative="1" as="geometry">
            <mxPoint x="411" y="383" as="sourcePoint" />
            <mxPoint x="556" y="393" as="targetPoint" />
          </mxGeometry>
        </mxCell>
        <mxCell id="LGlkHWS4qKsqTmbDjTO9-44" value="" style="endArrow=classic;html=1;rounded=0;entryX=0;entryY=0.5;entryDx=0;entryDy=0;exitX=1;exitY=0.5;exitDx=0;exitDy=0;" edge="1" parent="1" source="LGlkHWS4qKsqTmbDjTO9-7" target="LGlkHWS4qKsqTmbDjTO9-13">
          <mxGeometry width="50" height="50" relative="1" as="geometry">
            <mxPoint x="411" y="248" as="sourcePoint" />
            <mxPoint x="556" y="393" as="targetPoint" />
          </mxGeometry>
        </mxCell>
        <mxCell id="LGlkHWS4qKsqTmbDjTO9-45" value="" style="endArrow=classic;html=1;rounded=0;entryX=0;entryY=0.5;entryDx=0;entryDy=0;exitX=1;exitY=0.5;exitDx=0;exitDy=0;" edge="1" parent="1" source="LGlkHWS4qKsqTmbDjTO9-6" target="LGlkHWS4qKsqTmbDjTO9-13">
          <mxGeometry width="50" height="50" relative="1" as="geometry">
            <mxPoint x="411" y="188" as="sourcePoint" />
            <mxPoint x="556" y="393" as="targetPoint" />
          </mxGeometry>
        </mxCell>
        <mxCell id="LGlkHWS4qKsqTmbDjTO9-46" value="&lt;b&gt;&lt;font style=&quot;font-size: 18px;&quot;&gt;Input&lt;/font&gt;&lt;/b&gt;" style="text;strokeColor=none;align=center;fillColor=none;html=1;verticalAlign=middle;whiteSpace=wrap;rounded=0;" vertex="1" parent="1">
          <mxGeometry x="131" y="198" width="90" height="50" as="geometry" />
        </mxCell>
        <mxCell id="LGlkHWS4qKsqTmbDjTO9-47" value="&lt;b&gt;&lt;font style=&quot;font-size: 18px;&quot;&gt;Hidden Layer&lt;/font&gt;&lt;/b&gt;" style="text;strokeColor=none;align=center;fillColor=none;html=1;verticalAlign=middle;whiteSpace=wrap;rounded=0;" vertex="1" parent="1">
          <mxGeometry x="326" y="88" width="120" height="50" as="geometry" />
        </mxCell>
        <mxCell id="LGlkHWS4qKsqTmbDjTO9-48" value="&lt;b&gt;&lt;font style=&quot;font-size: 18px;&quot;&gt;Output&lt;/font&gt;&lt;/b&gt;" style="text;strokeColor=none;align=center;fillColor=none;html=1;verticalAlign=middle;whiteSpace=wrap;rounded=0;" vertex="1" parent="1">
          <mxGeometry x="551" y="218" width="90" height="50" as="geometry" />
        </mxCell>
        <mxCell id="LGlkHWS4qKsqTmbDjTO9-50" value="&lt;b&gt;&lt;font style=&quot;font-size: 12px;&quot;&gt;Treshold Node&lt;/font&gt;&lt;/b&gt;" style="text;strokeColor=none;align=center;fillColor=none;html=1;verticalAlign=middle;whiteSpace=wrap;rounded=0;" vertex="1" parent="1">
          <mxGeometry x="131" y="418" width="90" height="50" as="geometry" />
        </mxCell>
        <mxCell id="LGlkHWS4qKsqTmbDjTO9-51" value="&lt;b&gt;&lt;font style=&quot;font-size: 12px;&quot;&gt;Treshold Node&lt;/font&gt;&lt;/b&gt;" style="text;strokeColor=none;align=center;fillColor=none;html=1;verticalAlign=middle;whiteSpace=wrap;rounded=0;" vertex="1" parent="1">
          <mxGeometry x="341" y="528" width="90" height="50" as="geometry" />
        </mxCell>
        <mxCell id="LGlkHWS4qKsqTmbDjTO9-52" value="&lt;font style=&quot;font-size: 6px;&quot;&gt;&lt;b style=&quot;&quot;&gt;3.29&lt;/b&gt;&lt;/font&gt;" style="text;strokeColor=none;align=center;fillColor=none;html=1;verticalAlign=middle;whiteSpace=wrap;rounded=0;rotation=-30;" vertex="1" parent="1">
          <mxGeometry x="307.23999999999995" y="170" width="43.76" height="17.06" as="geometry" />
        </mxCell>
        <mxCell id="LGlkHWS4qKsqTmbDjTO9-54" value="&lt;font style=&quot;font-size: 6px;&quot;&gt;&lt;b style=&quot;&quot;&gt;-1.724&lt;/b&gt;&lt;/font&gt;" style="text;strokeColor=none;align=center;fillColor=none;html=1;verticalAlign=middle;whiteSpace=wrap;rounded=0;rotation=-40;" vertex="1" parent="1">
          <mxGeometry x="297.24" y="198" width="43.76" height="17.06" as="geometry" />
        </mxCell>
        <mxCell id="LGlkHWS4qKsqTmbDjTO9-58" value="&lt;font style=&quot;font-size: 6px;&quot;&gt;&lt;b style=&quot;&quot;&gt;2.59&lt;/b&gt;&lt;/font&gt;" style="text;strokeColor=none;align=center;fillColor=none;html=1;verticalAlign=middle;whiteSpace=wrap;rounded=0;rotation=-55;" vertex="1" parent="1">
          <mxGeometry x="297.24" y="218" width="43.76" height="17.06" as="geometry" />
        </mxCell>
        <mxCell id="LGlkHWS4qKsqTmbDjTO9-61" value="&lt;font style=&quot;font-size: 6px;&quot;&gt;&lt;b style=&quot;&quot;&gt;-0.862&lt;/b&gt;&lt;/font&gt;" style="text;strokeColor=none;align=center;fillColor=none;html=1;verticalAlign=middle;whiteSpace=wrap;rounded=0;rotation=-10;" vertex="1" parent="1">
          <mxGeometry x="320" y="224.47" width="43.76" height="17.06" as="geometry" />
        </mxCell>
        <mxCell id="LGlkHWS4qKsqTmbDjTO9-62" value="&lt;font style=&quot;font-size: 6px;&quot;&gt;&lt;b style=&quot;&quot;&gt;-7.373&lt;/b&gt;&lt;/font&gt;" style="text;strokeColor=none;align=center;fillColor=none;html=1;verticalAlign=middle;whiteSpace=wrap;rounded=0;rotation=-30;" vertex="1" parent="1">
          <mxGeometry x="297.24" y="248" width="43.76" height="17.06" as="geometry" />
        </mxCell>
        <mxCell id="LGlkHWS4qKsqTmbDjTO9-63" value="&lt;font style=&quot;font-size: 6px;&quot;&gt;&lt;b style=&quot;&quot;&gt;-1.112&lt;/b&gt;&lt;/font&gt;" style="text;strokeColor=none;align=center;fillColor=none;html=1;verticalAlign=middle;whiteSpace=wrap;rounded=0;rotation=-45;" vertex="1" parent="1">
          <mxGeometry x="297.24" y="268" width="43.76" height="17.06" as="geometry" />
        </mxCell>
        <mxCell id="LGlkHWS4qKsqTmbDjTO9-65" value="&lt;span style=&quot;font-size: 6px;&quot;&gt;&lt;b&gt;5.316&lt;/b&gt;&lt;/span&gt;" style="text;strokeColor=none;align=center;fillColor=none;html=1;verticalAlign=middle;whiteSpace=wrap;rounded=0;rotation=30;" vertex="1" parent="1">
          <mxGeometry x="320" y="340.94000000000005" width="43.76" height="17.06" as="geometry" />
        </mxCell>
        <mxCell id="LGlkHWS4qKsqTmbDjTO9-67" value="&lt;span style=&quot;font-size: 6px;&quot;&gt;&lt;b&gt;-2.946&lt;/b&gt;&lt;/span&gt;" style="text;strokeColor=none;align=center;fillColor=none;html=1;verticalAlign=middle;whiteSpace=wrap;rounded=0;rotation=-15;" vertex="1" parent="1">
          <mxGeometry x="297.24" y="294.47" width="43.76" height="17.06" as="geometry" />
        </mxCell>
        <mxCell id="LGlkHWS4qKsqTmbDjTO9-68" value="&lt;span style=&quot;font-size: 6px;&quot;&gt;&lt;b&gt;3.985&lt;/b&gt;&lt;/span&gt;" style="text;strokeColor=none;align=center;fillColor=none;html=1;verticalAlign=middle;whiteSpace=wrap;rounded=0;rotation=-30;" vertex="1" parent="1">
          <mxGeometry x="297.24" y="318.00000000000006" width="43.76" height="17.06" as="geometry" />
        </mxCell>
        <mxCell id="LGlkHWS4qKsqTmbDjTO9-69" value="&lt;span style=&quot;font-size: 6px;&quot;&gt;&lt;b&gt;3.587&lt;/b&gt;&lt;/span&gt;" style="text;strokeColor=none;align=center;fillColor=none;html=1;verticalAlign=middle;whiteSpace=wrap;rounded=0;rotation=15;" vertex="1" parent="1">
          <mxGeometry x="320" y="281.53000000000003" width="43.76" height="17.06" as="geometry" />
        </mxCell>
        <mxCell id="LGlkHWS4qKsqTmbDjTO9-70" value="&lt;span style=&quot;font-size: 6px;&quot;&gt;&lt;b&gt;0.492&lt;/b&gt;&lt;/span&gt;" style="text;strokeColor=none;align=center;fillColor=none;html=1;verticalAlign=middle;whiteSpace=wrap;rounded=0;rotation=15;" vertex="1" parent="1">
          <mxGeometry x="307.24" y="348.00000000000006" width="43.76" height="17.06" as="geometry" />
        </mxCell>
        <mxCell id="LGlkHWS4qKsqTmbDjTO9-71" value="&lt;span style=&quot;font-size: 6px;&quot;&gt;&lt;b&gt;0.993&lt;/b&gt;&lt;/span&gt;" style="text;strokeColor=none;align=center;fillColor=none;html=1;verticalAlign=middle;whiteSpace=wrap;rounded=0;rotation=-10;" vertex="1" parent="1">
          <mxGeometry x="307.24" y="368.00000000000006" width="43.76" height="17.06" as="geometry" />
        </mxCell>
        <mxCell id="LGlkHWS4qKsqTmbDjTO9-72" value="&lt;span style=&quot;font-size: 6px;&quot;&gt;&lt;b&gt;3.159&lt;/b&gt;&lt;/span&gt;" style="text;strokeColor=none;align=center;fillColor=none;html=1;verticalAlign=middle;whiteSpace=wrap;rounded=0;rotation=45;" vertex="1" parent="1">
          <mxGeometry x="320" y="398.00000000000006" width="43.76" height="17.06" as="geometry" />
        </mxCell>
        <mxCell id="LGlkHWS4qKsqTmbDjTO9-75" value="&lt;span style=&quot;font-size: 6px;&quot;&gt;&lt;b&gt;-1.882&lt;/b&gt;&lt;/span&gt;" style="text;strokeColor=none;align=center;fillColor=none;html=1;verticalAlign=middle;whiteSpace=wrap;rounded=0;rotation=30;" vertex="1" parent="1">
          <mxGeometry x="307.24" y="410.94000000000005" width="43.76" height="17.06" as="geometry" />
        </mxCell>
        <mxCell id="LGlkHWS4qKsqTmbDjTO9-77" value="&lt;span style=&quot;font-size: 6px;&quot;&gt;&lt;b&gt;1.791&lt;/b&gt;&lt;/span&gt;" style="text;strokeColor=none;align=center;fillColor=none;html=1;verticalAlign=middle;whiteSpace=wrap;rounded=0;rotation=15;" vertex="1" parent="1">
          <mxGeometry x="310" y="434.47" width="43.76" height="17.06" as="geometry" />
        </mxCell>
        <mxCell id="LGlkHWS4qKsqTmbDjTO9-80" value="&lt;b&gt;&lt;font style=&quot;font-size: 12px;&quot;&gt;Usia&lt;/font&gt;&lt;/b&gt;" style="text;strokeColor=none;align=center;fillColor=none;html=1;verticalAlign=middle;whiteSpace=wrap;rounded=0;" vertex="1" parent="1">
          <mxGeometry x="131" y="265.05999999999995" width="90" height="50" as="geometry" />
        </mxCell>
        <mxCell id="LGlkHWS4qKsqTmbDjTO9-81" value="&lt;b&gt;&lt;font style=&quot;font-size: 12px;&quot;&gt;Pendapatan(Rp)&lt;/font&gt;&lt;/b&gt;" style="text;strokeColor=none;align=center;fillColor=none;html=1;verticalAlign=middle;whiteSpace=wrap;rounded=0;" vertex="1" parent="1">
          <mxGeometry x="120" y="335.06" width="90" height="50" as="geometry" />
        </mxCell>
        <mxCell id="LGlkHWS4qKsqTmbDjTO9-85" value="&lt;font style=&quot;font-size: 6px;&quot;&gt;&lt;b style=&quot;&quot;&gt;2.059&lt;/b&gt;&lt;/font&gt;" style="text;strokeColor=none;align=center;fillColor=none;html=1;verticalAlign=middle;whiteSpace=wrap;rounded=0;rotation=45;" vertex="1" parent="1">
          <mxGeometry x="424.99999999999994" y="168" width="43.76" height="17.06" as="geometry" />
        </mxCell>
        <mxCell id="LGlkHWS4qKsqTmbDjTO9-89" value="&lt;font style=&quot;font-size: 6px;&quot;&gt;&lt;b style=&quot;&quot;&gt;3.925&lt;/b&gt;&lt;/font&gt;" style="text;strokeColor=none;align=center;fillColor=none;html=1;verticalAlign=middle;whiteSpace=wrap;rounded=0;rotation=15;" vertex="1" parent="1">
          <mxGeometry x="400.99999999999994" y="224.47" width="43.76" height="17.06" as="geometry" />
        </mxCell>
        <mxCell id="LGlkHWS4qKsqTmbDjTO9-91" value="&lt;font style=&quot;font-size: 6px;&quot;&gt;&lt;b style=&quot;&quot;&gt;2.576&lt;/b&gt;&lt;/font&gt;" style="text;strokeColor=none;align=center;fillColor=none;html=1;verticalAlign=middle;whiteSpace=wrap;rounded=0;rotation=-5;" vertex="1" parent="1">
          <mxGeometry x="400.99999999999994" y="285.05999999999995" width="43.76" height="17.06" as="geometry" />
        </mxCell>
        <mxCell id="LGlkHWS4qKsqTmbDjTO9-92" value="&lt;font style=&quot;font-size: 6px;&quot;&gt;&lt;b style=&quot;&quot;&gt;2.831&lt;/b&gt;&lt;/font&gt;" style="text;strokeColor=none;align=center;fillColor=none;html=1;verticalAlign=middle;whiteSpace=wrap;rounded=0;rotation=-25;" vertex="1" parent="1">
          <mxGeometry x="400.99999999999994" y="347.99999999999994" width="43.76" height="17.06" as="geometry" />
        </mxCell>
        <mxCell id="LGlkHWS4qKsqTmbDjTO9-93" value="&lt;font style=&quot;font-size: 6px;&quot;&gt;&lt;b style=&quot;&quot;&gt;1.798&lt;/b&gt;&lt;/font&gt;" style="text;strokeColor=none;align=center;fillColor=none;html=1;verticalAlign=middle;whiteSpace=wrap;rounded=0;rotation=-40;" vertex="1" parent="1">
          <mxGeometry x="400.99999999999994" y="404.4699999999999" width="43.76" height="17.06" as="geometry" />
        </mxCell>
        <mxCell id="LGlkHWS4qKsqTmbDjTO9-94" value="&lt;font style=&quot;font-size: 6px;&quot;&gt;&lt;b style=&quot;&quot;&gt;-5.011&lt;/b&gt;&lt;/font&gt;" style="text;strokeColor=none;align=center;fillColor=none;html=1;verticalAlign=middle;whiteSpace=wrap;rounded=0;rotation=-50;" vertex="1" parent="1">
          <mxGeometry x="387.23999999999995" y="490.93999999999994" width="43.76" height="17.06" as="geometry" />
        </mxCell>
        <mxCell id="LGlkHWS4qKsqTmbDjTO9-95" value="&lt;font style=&quot;font-size: 6px;&quot;&gt;&lt;b style=&quot;&quot;&gt;-1.986&lt;/b&gt;&lt;/font&gt;" style="text;strokeColor=none;align=center;fillColor=none;html=1;verticalAlign=middle;whiteSpace=wrap;rounded=0;rotation=45;" vertex="1" parent="1">
          <mxGeometry x="400.99999999999994" y="180.94" width="43.76" height="17.06" as="geometry" />
        </mxCell>
        <mxCell id="LGlkHWS4qKsqTmbDjTO9-96" value="&lt;font style=&quot;font-size: 6px;&quot;&gt;&lt;b style=&quot;&quot;&gt;-3.934&lt;/b&gt;&lt;/font&gt;" style="text;strokeColor=none;align=center;fillColor=none;html=1;verticalAlign=middle;whiteSpace=wrap;rounded=0;rotation=45;" vertex="1" parent="1">
          <mxGeometry x="400.99999999999994" y="248" width="43.76" height="17.06" as="geometry" />
        </mxCell>
        <mxCell id="LGlkHWS4qKsqTmbDjTO9-97" value="&lt;font style=&quot;font-size: 6px;&quot;&gt;&lt;b style=&quot;&quot;&gt;-2.608&lt;/b&gt;&lt;/font&gt;" style="text;strokeColor=none;align=center;fillColor=none;html=1;verticalAlign=middle;whiteSpace=wrap;rounded=0;rotation=25;" vertex="1" parent="1">
          <mxGeometry x="402.99999999999994" y="311.53000000000003" width="43.76" height="17.06" as="geometry" />
        </mxCell>
        <mxCell id="LGlkHWS4qKsqTmbDjTO9-98" value="&lt;font style=&quot;font-size: 6px;&quot;&gt;&lt;b style=&quot;&quot;&gt;-2.873&lt;/b&gt;&lt;/font&gt;" style="text;strokeColor=none;align=center;fillColor=none;html=1;verticalAlign=middle;whiteSpace=wrap;rounded=0;rotation=5;" vertex="1" parent="1">
          <mxGeometry x="400.99999999999994" y="370.94000000000005" width="43.76" height="17.06" as="geometry" />
        </mxCell>
        <mxCell id="LGlkHWS4qKsqTmbDjTO9-99" value="&lt;font style=&quot;font-size: 6px;&quot;&gt;&lt;b style=&quot;&quot;&gt;-1.794&lt;/b&gt;&lt;/font&gt;" style="text;strokeColor=none;align=center;fillColor=none;html=1;verticalAlign=middle;whiteSpace=wrap;rounded=0;rotation=-20;" vertex="1" parent="1">
          <mxGeometry x="402.23999999999995" y="434.47" width="43.76" height="17.06" as="geometry" />
        </mxCell>
        <mxCell id="LGlkHWS4qKsqTmbDjTO9-100" value="&lt;font style=&quot;font-size: 6px;&quot;&gt;&lt;b style=&quot;&quot;&gt;5.007&lt;/b&gt;&lt;/font&gt;" style="text;strokeColor=none;align=center;fillColor=none;html=1;verticalAlign=middle;whiteSpace=wrap;rounded=0;rotation=-30;" vertex="1" parent="1">
          <mxGeometry x="419.99999999999994" y="490.93999999999994" width="43.76" height="17.06" as="geometry" />
        </mxCell>
        <mxCell id="LGlkHWS4qKsqTmbDjTO9-102" value="&lt;font style=&quot;font-size: 11px;&quot;&gt;- &lt;b&gt;training cycles&lt;/b&gt; &lt;span style=&quot;white-space: pre;&quot;&gt;&#x9;&lt;/span&gt;= 200&lt;/font&gt;&lt;div&gt;&lt;font style=&quot;font-size: 11px;&quot;&gt;- &lt;b&gt;learning rate&lt;/b&gt; &lt;span style=&quot;white-space: pre;&quot;&gt;&#x9;&lt;/span&gt;= 0.1&lt;/font&gt;&lt;/div&gt;&lt;span style=&quot;background-color: initial;&quot;&gt;&lt;font style=&quot;font-size: 11px;&quot;&gt;- &lt;b&gt;momentum &lt;span style=&quot;white-space: pre;&quot;&gt;&#x9;&lt;/span&gt;&lt;span style=&quot;white-space: pre;&quot;&gt;&#x9;&lt;/span&gt;&lt;/b&gt;= 0.9&lt;/font&gt;&lt;/span&gt;" style="text;strokeColor=none;align=left;fillColor=none;html=1;verticalAlign=middle;whiteSpace=wrap;rounded=0;fontFamily=Helvetica;fontSize=12;fontColor=default;" vertex="1" parent="1">
          <mxGeometry x="180" y="490.94" width="150" height="58" as="geometry" />
        </mxCell>
        <mxCell id="LGlkHWS4qKsqTmbDjTO9-104" value="" style="rounded=1;whiteSpace=wrap;html=1;align=center;verticalAlign=middle;fontFamily=Helvetica;fontSize=12;fontColor=default;fillColor=none;gradientColor=none;" vertex="1" parent="1">
          <mxGeometry x="177.24" y="490.94" width="142.76" height="58.94" as="geometry" />
        </mxCell>
      </root>
    </mxGraphModel>
  </diagram>
</mxfile>
